<svg xmlns="http://www.w3.org/2000/svg" viewBox="0 0 128 128">
  <path fill="#ffff" fill-rule="evenodd" clip-rule="evenodd" d="M64 5.103c-33.347 0-60.388 27.035-60.388 60.388 0 26.682 17.303 49.317 41.297 57.303 3.017.56 4.125-1.31 4.125-2.905 0-1.44-.056-6.197-.082-11.243-16.8 3.653-20.345-7.125-20.345-7.125-2.747-6.98-6.705-8.836-6.705-8.836-5.48-3.748.413-3.67.413-3.67 6.063.425 9.257 6.223 9.257 6.223 5.386 9.23 14.127 6.562 17.573 5.02.542-3.903 2.107-6.568 3.834-8.076-13.413-1.525-27.514-6.704-27.514-29.843 0-6.593 2.36-11.98 6.223-16.21-.628-1.52-2.695-7.662.584-15.98 0 0 5.07-1.623 16.61 6.19C53.7 35 58.867 34.327 64 34.304c5.13.023 10.3.694 15.127 2.033 11.526-7.813 16.59-6.19 16.59-6.19 3.287 8.317 1.22 14.46 .593 15.98 3.872 4.23 6.215 9.617 6.215 16.21 0 23.194-14.127 28.3-27.574 29.796 2.167 1.874 4.097 5.55 4.097 11.183 0 8.08-.07 14.583-.07 16.572 0 1.607 1.088 3.49 4.148 2.897 23.98-7.994 41.263-30.622 41.263-57.294C124.388 32.14 97.35 5.104 64 5.104z"></path>
  <path fill="#ffff" d="M26.484 91.806c-.133.3-.605.39-1.035.185-.44-.196-.685-.605-.543-.906.13-.310.603-.395 1.040-.188.440.197.690.610.537.910zm2.446 2.729c-.287.267-.850.143-1.232-.280-.396-.420-.470-.983-.177-1.254.298-.266.844-.140 1.240.280.394.426.472.984.170 1.255zm3.261 3.361c-.370.258-.976.017-1.350-.520-.370-.538-.370-1.183.010-1.440.373-.258.970-.025 1.350.507.368.545.368 1.190-.010 1.452zm4.500 1.951c-.147.473-.825.688-1.510.486-.683-.207-1.130-.760-.990-1.238.140-.477.823-.700 1.512-.485.683.206.1130.756.988 1.237zm4.943.361c-.017.498-.563.910-1.280.920-.723.017-1.308-.387-1.315-.877 0-.503.568-.910 1.290-.924.717-.013 1.306.387 1.306.880zm4.598-.782c.086.485-.413.984-1.126 1.117-.700.130-1.350-.172-1.440-.653-.086-.498.422-.997 1.122-1.126.714-.123 1.354.170 1.444.663zm0 0"></path>
</svg>
