<?xml version="1.0" encoding="UTF-8"?>
<!DOCTYPE svg PUBLIC "-//W3C//DTD SVG 1.1//EN" "http://www.w3.org/Graphics/SVG/1.1/DTD/svg11.dtd">
<!-- Creator: CorelDRAW 2021 (64-Bit) -->
<svg xmlns="http://www.w3.org/2000/svg" xml:space="preserve" width="1.77165in" height="0.787402in" version="1.1" style="shape-rendering:geometricPrecision; text-rendering:geometricPrecision; image-rendering:optimizeQuality; fill-rule:evenodd; clip-rule:evenodd"
viewBox="0 0 1771.65 787.4"
 xmlns:xlink="http://www.w3.org/1999/xlink"
 xmlns:xodm="http://www.corel.com/coreldraw/odm/2003">
 <defs>
  <style type="text/css">
   <![CDATA[
    .fil0 {fill:black;fill-rule:nonzero}
   ]]>
  </style>
 </defs>
 <g id="Layer_x0020_1">
  <metadata id="CorelCorpID_0Corel-Layer"/>
  <path class="fil0" d="M39.63 729.28c-5.78,0 -10.44,-2.67 -14,-8 -3.56,-5.33 -5.33,-12.22 -5.33,-20.67 0,-8.89 2.11,-15.89 6.33,-21 4.22,-5.11 9.89,-7.67 17,-7.67 20,0 39.11,-9 57.33,-27 18.22,-18 38.67,-48.56 61.33,-91.67l0 -352.67c0,-44.44 9.33,-78.67 28,-102.67 18.67,-24 45.56,-35.78 80.67,-35.33 32,0.44 57,12.89 75,37.33 18,24.44 27,56.22 27,95.33 0,31.56 -5.56,66.67 -16.67,105.33 -11.11,38.67 -26,75.78 -44.67,111.33 4.89,-0.44 9.78,-0.67 14.67,-0.67 33.33,0 59.89,11.78 79.67,35.33 19.78,23.56 29.67,55.11 29.67,94.67l0 57.33c0,25.78 3.22,44.44 9.67,56 6.44,11.56 17.22,17.33 32.33,17.33 7.11,0 12.22,2.78 15.33,8.33 3.11,5.56 4.67,12.56 4.67,21 0,8.44 -2.11,15.22 -6.33,20.33 -4.22,5.11 -10.11,7.67 -17.67,7.67 -32,0 -56.56,-10.33 -73.67,-31 -17.11,-20.67 -25.67,-49.89 -25.67,-87.67l0 -70.67c0,-22.67 -5,-40.33 -15,-53 -10,-12.67 -24.11,-19 -42.33,-19 -17.78,0 -33.78,5.89 -48,17.67 -14.22,11.78 -25.56,27.89 -34,48.33 -8.44,20.44 -12.89,44 -13.33,70.67l0 115.33c-4.44,1.33 -9.33,2.44 -14.67,3.33 -5.33,0.89 -10.44,1.33 -15.33,1.33 -9.78,0 -19.56,-1.56 -29.33,-4.67l0 -57.33c-18.67,24.44 -37.56,41.67 -56.67,51.67 -19.11,10 -41.11,15 -66,15zm180 -529.33l0 257.33c20,-30.67 37.22,-61.56 51.67,-92.67 14.44,-31.11 25.56,-61.22 33.33,-90.33 7.78,-29.11 11.67,-55.67 11.67,-79.67 0,-24.89 -4.11,-43.89 -12.33,-57 -8.22,-13.11 -20.11,-19.67 -35.67,-19.67 -32.44,0 -48.67,27.33 -48.67,82zm254 529.33c-5.78,0 -10.44,-2.67 -14,-8 -3.56,-5.33 -5.33,-12.22 -5.33,-20.67 0,-19.11 8,-28.67 24,-28.67 12.89,0 26,-2.11 39.33,-6.33 13.33,-4.22 28.89,-11.44 46.67,-21.67 -17.33,-30.22 -26,-65.78 -26,-106.67 0,-27.56 5.11,-51.89 15.33,-73 10.22,-21.11 24.44,-37.78 42.67,-50 18.22,-12.22 38.89,-18.33 62,-18.33 19.56,0 36.89,4.56 52,13.67 15.11,9.11 26.89,21.67 35.33,37.67 8.44,16 12.67,34.44 12.67,55.33 0,28.44 -8.33,54.44 -25,78 -16.67,23.56 -44.78,49.11 -84.33,76.67 14.22,10.22 33.33,15.33 57.33,15.33 6.22,0 11.11,2.67 14.67,8 3.56,5.33 5.33,12.44 5.33,21.33 0,8.44 -2,15.11 -6,20 -4,4.89 -9.78,7.33 -17.33,7.33 -21.33,0 -41.33,-3.56 -60,-10.67 -18.67,-7.11 -34.22,-16.89 -46.67,-29.33 -42.67,26.67 -83.56,40 -122.67,40zm122.67 -197.33c0,35.11 6.22,63.11 18.67,84 28.89,-20 50.33,-39.56 64.33,-58.67 14,-19.11 21,-37.33 21,-54.67 0,-16 -3.89,-28.56 -11.67,-37.67 -7.78,-9.11 -18.56,-13.67 -32.33,-13.67 -17.33,0 -31.67,7.78 -43,23.33 -11.33,15.56 -17,34.67 -17,57.33zm172 197.33c-5.78,0 -10.44,-2.67 -14,-8 -3.56,-5.33 -5.33,-12.22 -5.33,-20.67 0,-8.89 2.11,-15.89 6.33,-21 4.22,-5.11 9.89,-7.67 17,-7.67 15.11,0 31.56,-5.78 49.33,-17.33 17.78,-11.56 34.67,-27.33 50.67,-47.33 -2.67,-16 -4.67,-35.56 -6,-58.67 -1.33,-23.11 -2.22,-52 -2.67,-86.67 -0.44,-34.67 -0.67,-77.33 -0.67,-128l0 -83.33c0,-20.89 0.78,-40 2.33,-57.33 1.56,-17.33 4.33,-32.89 8.33,-46.67 8.44,-28.89 21,-50.11 37.67,-63.67 16.67,-13.56 36.56,-20.33 59.67,-20.33 33.33,0 59.44,15.22 78.33,45.67 18.89,30.44 28.33,72.78 28.33,127 0,64 -12.44,129.67 -37.33,197 -24.89,67.33 -60.44,131.67 -106.67,193 0.44,0.89 0.89,2 1.33,3.33 5.78,14.22 13.89,25.11 24.33,32.67 10.44,7.56 23.89,11.33 40.33,11.33 6.22,0 11.22,2.56 15,7.67 3.78,5.11 5.67,12.11 5.67,21 0,18.67 -8.22,28 -24.67,28 -26.67,0 -48.22,-5.56 -64.67,-16.67 -16.44,-11.11 -29.11,-25.11 -38,-42 -38.22,39.11 -79.78,58.67 -124.67,58.67zm151.33 -391.33c0,52.89 0.11,95.78 0.33,128.67 0.22,32.89 0.78,59.56 1.67,80 66.22,-109.78 99.33,-213.78 99.33,-312 0,-37.78 -4.33,-66.67 -13,-86.67 -8.67,-20 -21.22,-30 -37.67,-30 -16.44,0 -29,10.44 -37.67,31.33 -8.67,20.89 -13,57.11 -13,108.67l0 80zm142.67 391.33c-5.78,0 -10.44,-2.67 -14,-8 -3.56,-5.33 -5.33,-12.22 -5.33,-20.67 0,-8.89 2.11,-15.89 6.33,-21 4.22,-5.11 9.89,-7.67 17,-7.67 15.11,0 31.56,-5.78 49.33,-17.33 17.78,-11.56 34.67,-27.33 50.67,-47.33 -2.67,-16 -4.67,-35.56 -6,-58.67 -1.33,-23.11 -2.22,-52 -2.67,-86.67 -0.44,-34.67 -0.67,-77.33 -0.67,-128l0 -83.33c0,-20.89 0.78,-40 2.33,-57.33 1.56,-17.33 4.33,-32.89 8.33,-46.67 8.44,-28.89 21,-50.11 37.67,-63.67 16.67,-13.56 36.56,-20.33 59.67,-20.33 33.33,0 59.44,15.22 78.33,45.67 18.89,30.44 28.33,72.78 28.33,127 0,64 -12.44,129.67 -37.33,197 -24.89,67.33 -60.44,131.67 -106.67,193 0.44,0.89 0.89,2 1.33,3.33 5.78,14.22 13.89,25.11 24.33,32.67 10.44,7.56 23.89,11.33 40.33,11.33 6.22,0 11.22,2.56 15,7.67 3.78,5.11 5.67,12.11 5.67,21 0,18.67 -8.22,28 -24.67,28 -26.67,0 -48.22,-5.56 -64.67,-16.67 -16.44,-11.11 -29.11,-25.11 -38,-42 -38.22,39.11 -79.78,58.67 -124.67,58.67zm151.33 -391.33c0,52.89 0.11,95.78 0.33,128.67 0.22,32.89 0.78,59.56 1.67,80 66.22,-109.78 99.33,-213.78 99.33,-312 0,-37.78 -4.33,-66.67 -13,-86.67 -8.67,-20 -21.22,-30 -37.67,-30 -16.44,0 -29,10.44 -37.67,31.33 -8.67,20.89 -13,57.11 -13,108.67l0 80zm147.33 334c14.67,0 29,-7 43,-21 14,-14 25.89,-32.78 35.67,-56.33 -1.78,-10.67 -2.67,-21.56 -2.67,-32.67 0,-32 6.89,-60.44 20.67,-85.33 13.78,-24.89 32.56,-44.56 56.33,-59 23.78,-14.44 50.56,-21.67 80.33,-21.67 29.78,0 56.44,7.22 80,21.67 23.56,14.44 42.11,34.11 55.67,59 13.56,24.89 20.33,53.33 20.33,85.33 0,32 -6.78,60.67 -20.33,86 -13.56,25.33 -32,45.22 -55.33,59.67 -23.33,14.44 -50.11,21.67 -80.33,21.67 -27.11,0 -51.67,-5.89 -73.67,-17.67 -22,-11.78 -40.11,-27.89 -54.33,-48.33 -27.56,44 -64.22,66 -110,66 -5.78,0 -10.44,-2.67 -14,-8 -3.56,-5.33 -5.33,-12.22 -5.33,-20.67 0,-19.11 8,-28.67 24,-28.67zm232.67 0c28.44,0 51.22,-10 68.33,-30 17.11,-20 25.67,-46.67 25.67,-80 0,-16.44 -2.44,-31.56 -7.33,-45.33 -26.67,-0.89 -50.78,-6.22 -72.33,-16 -21.56,-9.78 -38.56,-23.11 -51,-40 -17.78,7.56 -31.78,20.33 -42,38.33 -10.22,18 -15.33,39.44 -15.33,64.33 0,32.44 8.56,58.67 25.67,78.67 17.11,20 39.89,30 68.33,30z"/>
 </g>
</svg>
