<svg xmlns="http://www.w3.org/2000/svg" viewBox="0 0 34 34" width="100" height="100">
  <rect width="100%" height="100%" fill="none" />
  <g fill="#0A66C2">
    <path d="M34,3.5C34,1.6,32.4,0,30.5,0h-27C1.6,0,0,1.6,0,3.5v27C0,32.4,1.6,34,3.5,34h27c1.9,0,3.5-1.6,3.5-3.5v-27H34z M10.1,28H4.7V12.8h5.4V28z M7.4,10.5c-1.7,0-3.1-1.4-3.1-3.1S5.7,4.3,7.4,4.3s3.1,1.4,3.1,3.1S9.1,10.5,7.4,10.5z M29.3,28h-5.4V20c0-1.9,0-4.4-2.7-4.4s-3.1,2.1-3.1,4.3V28H13v-15h5.2v2h0.1c0.7-1.3,2.5-2.7,5.2-2.7c5.6,0,6.6,3.7,6.6,8.4V28z"/>
  </g>
</svg>
