<?xml version="1.0" encoding="UTF-8"?>
<!DOCTYPE svg PUBLIC "-//W3C//DTD SVG 1.1//EN" "http://www.w3.org/Graphics/SVG/1.1/DTD/svg11.dtd">
<!-- Creator: CorelDRAW 2021 (64-Bit) -->
<svg xmlns="http://www.w3.org/2000/svg" xml:space="preserve" width="0.833331in" height="0.833331in" version="1.1" style="shape-rendering:geometricPrecision; text-rendering:geometricPrecision; image-rendering:optimizeQuality; fill-rule:evenodd; clip-rule:evenodd"
viewBox="0 0 833.33 833.33"
 xmlns:xlink="http://www.w3.org/1999/xlink"
 xmlns:xodm="http://www.corel.com/coreldraw/odm/2003">
 <defs>
  <style type="text/css">
   <![CDATA[
    .fil3 {fill:none}
    .fil2 {fill:#FEFEFE;fill-rule:nonzero}
    .fil0 {fill:#0D0C22;fill-rule:nonzero}
    .fil1 {fill:#FFDD00;fill-rule:nonzero}
   ]]>
  </style>
 </defs>
 <g id="Layer_x0020_1">
  <metadata id="CorelCorpID_0Corel-Layer"/>
  <g id="_2184169822288">
   <path class="fil0" d="M615.43 222.07l-0.5 -0.3 -1.15 -0.35c0.47,0.39 1.04,0.62 1.66,0.65l0 0z"/>
   <polygon class="fil0" points="622.71,274.02 622.16,274.18 "/>
   <path class="fil0" d="M615.69 221.98c-0.07,-0.02 -0.15,-0.03 -0.2,-0.06 -0.01,0.05 -0.01,0.09 0,0.14 0.07,-0.01 0.14,-0.04 0.2,-0.08l0 0z"/>
   <path class="fil0" d="M622.3 274.05l0.85 -0.48 0.31 -0.17 0.28 -0.3c-0.53,0.22 -1.02,0.55 -1.44,0.95l0 0z"/>
   <path class="fil0" d="M617 223.15l-0.82 -0.79 -0.56 -0.3c0.3,0.53 0.79,0.92 1.37,1.09l0 0z"/>
   <path class="fil0" d="M410.04 727.75c-0.65,0.28 -1.23,0.72 -1.67,1.3l0.52 -0.34c0.36,-0.32 0.85,-0.71 1.16,-0.96z"/>
   <path class="fil0" d="M530.19 704.18c0,-0.74 -0.36,-0.6 -0.28,2.04 0,-0.21 0.09,-0.43 0.13,-0.63 0.05,-0.47 0.09,-0.93 0.15,-1.41z"/>
   <path class="fil0" d="M517.79 727.75c-0.66,0.28 -1.24,0.72 -1.68,1.3l0.52 -0.34c0.35,-0.32 0.85,-0.71 1.15,-0.96z"/>
   <path class="fil0" d="M325.42 733.33c-0.5,-0.44 -1.11,-0.72 -1.77,-0.83 0.53,0.26 1.06,0.51 1.41,0.7l0.36 0.13z"/>
   <path class="fil0" d="M306.3 715.08c-0.08,-0.77 -0.32,-1.51 -0.7,-2.19 0.27,0.71 0.5,1.42 0.67,2.16l0.02 0.04z"/>
   <path class="fil1" d="M434.22 389.06c-26.14,11.19 -55.8,23.87 -94.26,23.87 -16.08,-0.03 -32.09,-2.23 -47.58,-6.55l26.59 273.02c0.94,11.41 6.14,22.05 14.56,29.8 8.43,7.76 19.46,12.06 30.91,12.06 0,0 37.7,1.95 50.28,1.95 13.54,0 54.15,-1.95 54.15,-1.95 11.45,0 22.48,-4.31 30.89,-12.06 8.43,-7.76 13.62,-18.39 14.57,-29.8l28.48 -301.7c-12.73,-4.35 -25.57,-7.23 -40.05,-7.23 -25.04,-0.01 -45.23,8.61 -68.54,18.59z"/>
   <path class="fil0" d="M210.07 272.53l0.45 0.42 0.3 0.18c-0.23,-0.23 -0.48,-0.43 -0.75,-0.6l0 0z"/>
   <path class="fil2" d="M665.8 247.29l-4.01 -20.2c-3.59,-18.12 -11.74,-35.25 -30.35,-41.8 -5.96,-2.1 -12.73,-3 -17.3,-7.34 -4.57,-4.33 -5.92,-11.07 -6.98,-17.31 -1.96,-11.46 -3.8,-22.94 -5.81,-34.38 -1.73,-9.84 -3.1,-20.9 -7.61,-29.93 -5.88,-12.11 -18.07,-19.2 -30.19,-23.89 -6.21,-2.32 -12.55,-4.28 -18.99,-5.87 -30.28,-7.99 -62.11,-10.93 -93.28,-12.61 -37.39,-2.06 -74.89,-1.44 -112.19,1.87 -27.77,2.52 -57.01,5.57 -83.4,15.18 -9.64,3.52 -19.58,7.74 -26.92,15.19 -9,9.16 -11.93,23.31 -5.36,34.73 4.67,8.1 12.58,13.83 20.97,17.62 10.93,4.89 22.34,8.6 34.06,11.09 32.6,7.21 66.37,10.03 99.68,11.24 36.92,1.48 73.89,0.28 110.64,-3.62 9.08,-1 18.15,-2.19 27.21,-3.59 10.66,-1.63 17.5,-15.58 14.36,-25.29 -3.76,-11.61 -13.87,-16.12 -25.29,-14.37 -1.69,0.27 -3.36,0.51 -5.05,0.76l-1.21 0.18c-3.87,0.49 -7.74,0.94 -11.61,1.37 -7.99,0.86 -16.01,1.57 -24.05,2.11 -17.99,1.26 -36.04,1.83 -54.07,1.86 -17.72,0 -35.45,-0.5 -53.13,-1.67 -8.07,-0.53 -16.11,-1.2 -24.15,-2.02 -3.65,-0.38 -7.3,-0.78 -10.93,-1.24l-3.46 -0.44 -0.76 -0.1 -3.59 -0.52c-7.35,-1.11 -14.69,-2.38 -21.96,-3.91 -0.73,-0.16 -1.39,-0.57 -1.85,-1.16 -0.47,-0.58 -0.73,-1.31 -0.73,-2.06 0,-0.75 0.26,-1.48 0.73,-2.06 0.47,-0.58 1.13,-1 1.85,-1.15l0.14 0c6.3,-1.34 12.64,-2.49 19.01,-3.49 2.12,-0.33 4.25,-0.66 6.38,-0.98l0.06 0c3.98,-0.26 7.99,-0.98 11.95,-1.44 34.5,-3.59 69.2,-4.81 103.87,-3.67 16.83,0.49 33.65,1.48 50.41,3.18 3.61,0.37 7.19,0.76 10.77,1.2 1.37,0.17 2.75,0.37 4.13,0.53l2.78 0.4c8.11,1.21 16.17,2.67 24.19,4.4 11.89,2.59 27.15,3.43 32.44,16.45 1.69,4.13 2.45,8.72 3.38,13.06l1.19 5.53c0.03,0.1 0.05,0.21 0.06,0.3 2.81,13.06 5.61,26.11 8.42,39.17 0.21,0.96 0.21,1.96 0.02,2.92 -0.2,0.97 -0.59,1.89 -1.16,2.69 -0.57,0.81 -1.29,1.49 -2.14,2.01 -0.84,0.52 -1.77,0.85 -2.75,0.98l-0.08 0 -1.71 0.24 -1.69 0.22c-5.36,0.7 -10.74,1.35 -16.12,1.96 -10.59,1.2 -21.2,2.25 -31.83,3.13 -21.12,1.76 -42.28,2.91 -63.48,3.46 -10.8,0.29 -21.6,0.42 -32.4,0.4 -42.97,-0.04 -85.91,-2.53 -128.59,-7.48 -4.62,-0.55 -9.24,-1.14 -13.86,-1.73 3.58,0.46 -2.61,-0.36 -3.86,-0.53 -2.94,-0.41 -5.87,-0.84 -8.81,-1.28 -9.85,-1.48 -19.66,-3.3 -29.5,-4.9 -11.9,-1.95 -23.28,-0.98 -34.03,4.9 -8.84,4.83 -15.98,12.24 -20.49,21.25 -4.64,9.59 -6.02,20.04 -8.1,30.35 -2.07,10.31 -5.31,21.4 -4.08,31.98 2.63,22.84 18.61,41.4 41.57,45.56 21.61,3.91 43.33,7.09 65.11,9.8 85.57,10.48 172.04,11.73 257.88,3.74 6.98,-0.65 13.96,-1.37 20.94,-2.14 2.18,-0.24 4.38,0.01 6.45,0.73 2.07,0.72 3.94,1.9 5.5,3.44 1.56,1.55 2.74,3.42 3.49,5.48 0.74,2.06 1,4.26 0.78,6.44l-2.17 21.13c-4.38,42.7 -8.76,85.39 -13.14,128.08 -4.57,44.83 -9.17,89.65 -13.8,134.48 -1.31,12.62 -2.61,25.24 -3.91,37.86 -1.25,12.43 -1.43,25.24 -3.79,37.52 -3.72,19.31 -16.79,31.16 -35.87,35.5 -17.47,3.97 -35.32,6.06 -53.24,6.22 -19.87,0.11 -39.72,-0.77 -59.59,-0.67 -21.21,0.12 -47.18,-1.83 -63.56,-17.62 -14.39,-13.87 -16.37,-35.57 -18.33,-54.34 -2.61,-24.85 -5.2,-49.7 -7.76,-74.54l-14.39 -138.14 -9.31 -89.37c-0.16,-1.48 -0.31,-2.94 -0.46,-4.43 -1.12,-10.66 -8.67,-21.1 -20.56,-20.56 -10.19,0.46 -21.76,9.11 -20.56,20.56l6.91 66.26 14.27 137.07c4.07,38.93 8.13,77.88 12.17,116.83 0.78,7.46 1.52,14.94 2.34,22.4 4.48,40.77 35.61,62.74 74.17,68.93 22.52,3.63 45.59,4.37 68.44,4.74 29.3,0.47 58.88,1.59 87.7,-3.71 42.7,-7.83 74.73,-36.34 79.3,-80.57 1.31,-12.77 2.61,-25.54 3.92,-38.31 4.34,-42.24 8.67,-84.5 13,-126.74l14.15 -138.06 6.49 -63.27c0.32,-3.13 1.65,-6.09 3.78,-8.41 2.13,-2.32 4.95,-3.91 8.05,-4.5 12.21,-2.38 23.88,-6.44 32.57,-15.74 13.82,-14.79 16.57,-34.08 11.69,-53.53zm-459.28 13.65c0.19,-0.09 -0.16,1.5 -0.31,2.25 -0.02,-1.12 0.04,-2.12 0.31,-2.25zm1.19 9.17c0.09,-0.07 0.39,0.32 0.69,0.79 -0.46,-0.43 -0.76,-0.76 -0.71,-0.79l0.02 0zm1.16 1.53c0.43,0.72 0.65,1.17 0,0l0 0zm2.34 1.9l0.06 0c0,0.07 0.11,0.14 0.15,0.21 -0.07,-0.07 -0.14,-0.15 -0.22,-0.21l0.01 0zm409.77 -2.83c-4.39,4.17 -11,6.11 -17.53,7.07 -73.24,10.87 -147.54,16.37 -221.57,13.94 -52.99,-1.81 -105.42,-7.7 -157.88,-15.11 -5.13,-0.72 -10.71,-1.67 -14.25,-5.44 -6.66,-7.15 -3.38,-21.55 -1.65,-30.18 1.58,-7.91 4.62,-18.45 14.03,-19.58 14.69,-1.73 31.74,4.47 46.28,6.68 17.49,2.67 35.05,4.81 52.67,6.41 75.21,6.85 151.69,5.79 226.57,-4.24 13.64,-1.84 27.24,-3.97 40.8,-6.4 12.07,-2.16 25.45,-6.22 32.75,6.28 5,8.52 5.67,19.92 4.89,29.54 -0.24,4.2 -2.07,8.14 -5.12,11.03l0.01 0z"/>
   <rect class="fil3" x="-0" y="-0" width="833.33" height="833.33"/>
  </g>
 </g>
</svg>
